<svg width="17" height="16" viewBox="0 0 17 16" fill="none" xmlns="http://www.w3.org/2000/svg">
<path d="M8.50004 1.33325C4.82004 1.33325 1.83337 4.31992 1.83337 7.99992C1.83337 11.6799 4.82004 14.6666 8.50004 14.6666C12.18 14.6666 15.1667 11.6799 15.1667 7.99992C15.1667 4.31992 12.18 1.33325 8.50004 1.33325ZM3.16671 7.99992C3.16671 5.05325 5.55337 2.66659 8.50004 2.66659C9.73337 2.66659 10.8667 3.08659 11.7667 3.79325L4.29337 11.2666C3.58671 10.3666 3.16671 9.23325 3.16671 7.99992ZM8.50004 13.3333C7.26671 13.3333 6.13337 12.9133 5.23337 12.2066L12.7067 4.73325C13.4134 5.63325 13.8334 6.76659 13.8334 7.99992C13.8334 10.9466 11.4467 13.3333 8.50004 13.3333Z" fill="white"/>
</svg>
