<svg width="17" height="17" viewBox="0 0 17 17" fill="none" xmlns="http://www.w3.org/2000/svg">
<path d="M8.49999 4.83333C11.0267 4.83333 13.28 6.25333 14.38 8.5C13.28 10.7467 11.0333 12.1667 8.49999 12.1667C5.96666 12.1667 3.71999 10.7467 2.61999 8.5C3.71999 6.25333 5.97332 4.83333 8.49999 4.83333ZM8.49999 3.5C5.16666 3.5 2.31999 5.57333 1.16666 8.5C2.31999 11.4267 5.16666 13.5 8.49999 13.5C11.8333 13.5 14.68 11.4267 15.8333 8.5C14.68 5.57333 11.8333 3.5 8.49999 3.5ZM8.49999 6.83333C9.41999 6.83333 10.1667 7.58 10.1667 8.5C10.1667 9.42 9.41999 10.1667 8.49999 10.1667C7.57999 10.1667 6.83332 9.42 6.83332 8.5C6.83332 7.58 7.57999 6.83333 8.49999 6.83333ZM8.49999 5.5C6.84666 5.5 5.49999 6.84667 5.49999 8.5C5.49999 10.1533 6.84666 11.5 8.49999 11.5C10.1533 11.5 11.5 10.1533 11.5 8.5C11.5 6.84667 10.1533 5.5 8.49999 5.5Z" fill="white"/>
</svg>
